<svg width="257" height="281" viewBox="0 0 257 281" fill="none" xmlns="http://www.w3.org/2000/svg">
<path fill-rule="evenodd" clip-rule="evenodd" d="M173 30C173 27.7909 171.209 26 169 26H90C87.7909 26 86 27.7909 86 30V33C86 35.2091 87.7909 37 90 37H169C171.209 37 173 35.2091 173 33V30ZM221 33C221 35.2091 222.791 37 225 37H230C238.837 37 246 44.1634 246 53V254C246 262.837 238.837 270 230 270H27C18.1634 270 11 262.837 11 254V53C11 44.1634 18.1634 37 27 37H34C36.2091 37 38 35.2091 38 33V30C38 27.7909 36.2091 26 34 26H27C12.0883 26 0 38.0883 0 53V254C0 268.912 12.0883 281 27 281H230C244.912 281 257 268.912 257 254V53C257 38.0883 244.912 26 230 26H225C222.791 26 221 27.7909 221 30V33Z" fill="#cad5e2"/>
<rect x="47" width="30" height="58" rx="13" fill="#cad5e2"/>
<rect x="182" width="30" height="58" rx="13" fill="#cad5e2"/>
<path fill-rule="evenodd" clip-rule="evenodd" d="M122.944 118.891C123.457 118.982 123.979 119 124.5 119C128.319 119 131.739 120.713 134.032 123.413C134.561 124.036 135.03 124.711 135.43 125.43C136.43 127.228 137 129.297 137 131.5C137 138.404 131.404 144 124.5 144C123.649 144 122.818 143.915 122.015 143.753C120.774 143.503 120 142.33 120 141.064C120 139.372 121.372 138 123.064 138H124.5C128.09 138 131 135.09 131 131.5C131 128.326 128.726 125.684 125.718 125.114C103.027 126.694 84.6602 144.536 81.4857 167.431C80.1525 167.307 78.7539 167.432 77.3652 167.844C72.0705 169.415 68.9245 174.552 70.3384 179.317C71.7202 183.974 76.9459 186.553 82.1247 185.201C86.8675 207.395 106.053 224 129 224L129.036 224L129.072 224C152.019 224 171.205 207.395 175.948 185.201C181.126 186.553 186.352 183.974 187.734 179.317C189.148 174.552 186.002 169.415 180.707 167.844C179.318 167.432 177.92 167.307 176.587 167.431C173.959 148.48 160.922 132.991 143.64 127.321C141.333 120.715 136.521 114.224 130 113.5C125.431 112.992 122.279 113 120.349 113.393C118.025 113.865 117.823 117.25 120.018 118.147C120.831 118.479 121.838 118.695 122.944 118.891ZM132.662 204H125.465C123.965 204 122.509 203.494 121.332 202.563L116.771 198.955C115.627 198.049 115.656 196.304 116.829 195.437C117.571 194.889 118.574 194.858 119.348 195.358L123.767 198.215C125.356 199.243 127.208 199.789 129.101 199.789H129.602C131.362 199.789 133.077 199.242 134.511 198.222L138.854 195.133C139.77 194.482 141.025 194.597 141.806 195.406C142.722 196.353 142.643 197.878 141.634 198.726L137.425 202.264C136.091 203.385 134.404 204 132.662 204ZM151.676 173.883C149.167 174.452 145.549 174.47 142.696 173.314C142.23 173.125 141.738 173 141.236 173H140.904C139.3 173 138 174.3 138 175.904C138 176.297 138.072 176.69 138.269 177.03C138.981 178.257 140.58 180 143 180H146.862C150.592 180 154.794 179.933 157.37 177.236C157.759 176.829 158 176.41 158 176C158 174 158 173 156.5 173C155.246 173 154.007 173.309 152.778 173.616C152.41 173.708 152.042 173.8 151.676 173.883ZM114.304 173.314C111.451 174.47 107.833 174.452 105.324 173.883C104.958 173.8 104.59 173.708 104.222 173.616L104.222 173.616L104.222 173.616C102.993 173.309 101.754 173 100.5 173C99 173 99 174 99 176C99 176.41 99.2408 176.829 99.6299 177.236C102.206 179.933 106.408 180 110.138 180H114C116.42 180 118.019 178.257 118.731 177.03C118.928 176.69 119 176.297 119 175.904C119 174.3 117.7 173 116.096 173H115.764C115.262 173 114.77 173.125 114.304 173.314Z" fill="#cad5e2"/>
<path fill-rule="evenodd" clip-rule="evenodd" d="M113 51C108.029 51 104 55.0294 104 60V63C104 67.9706 108.029 72 113 72H122V85.2775C77.2244 88.8423 42 126.308 42 172C42 220.049 80.9512 259 129 259C177.049 259 216 220.049 216 172C216 126.648 181.299 89.4015 137 85.3629V72H146C150.971 72 155 67.9706 155 63V60C155 55.0294 150.971 51 146 51H113ZM129 249C171.526 249 206 214.526 206 172C206 129.474 171.526 95 129 95C86.4741 95 52 129.474 52 172C52 214.526 86.4741 249 129 249Z" fill="#cad5e2"/>
</svg>
