<svg width="257" height="281" viewBox="0 0 257 281" fill="none" xmlns="http://www.w3.org/2000/svg">
<rect x="47" width="30" height="58" rx="13" fill="#cad5e2"/>
<rect x="182" width="30" height="58" rx="13" fill="#cad5e2"/>
<path fill-rule="evenodd" clip-rule="evenodd" d="M39 26H27C12.0883 26 0 38.0883 0 53V254C0 268.912 12.0883 281 27 281H230C244.912 281 257 268.912 257 254V53C257 38.0883 244.912 26 230 26H220V46C220 57.0457 211.046 66 200 66H194C182.954 66 174 57.0457 174 46V26H85V46C85 57.0457 76.0457 66 65 66H59C47.9543 66 39 57.0457 39 46V26ZM113 51C108.029 51 104 55.0294 104 60V63C104 67.9706 108.029 72 113 72H122V85.2775C77.2244 88.8423 42 126.308 42 172C42 220.049 80.9512 259 129 259C177.049 259 216 220.049 216 172C216 126.648 181.299 89.4015 137 85.3629V72H146C150.971 72 155 67.9706 155 63V60C155 55.0294 150.971 51 146 51H113ZM129 249C171.526 249 206 214.526 206 172C206 129.474 171.526 95 129 95C86.4741 95 52 129.474 52 172C52 214.526 86.4741 249 129 249ZM124.5 119C123.979 119 123.457 118.982 122.944 118.891C121.838 118.695 120.831 118.479 120.018 118.147C117.823 117.25 118.025 113.865 120.349 113.393C122.279 113 125.431 112.992 130 113.5C136.521 114.224 141.333 120.715 143.64 127.321C160.922 132.991 173.959 148.48 176.587 167.431C177.92 167.307 179.318 167.432 180.707 167.844C186.002 169.415 189.148 174.552 187.734 179.317C186.352 183.974 181.126 186.553 175.948 185.201C171.205 207.395 152.019 224 129.072 224L129.036 224L129 224C106.053 224 86.8676 207.395 82.1247 185.201C76.9459 186.553 71.7202 183.974 70.3384 179.317C68.9245 174.552 72.0705 169.415 77.3652 167.844C78.7539 167.432 80.1525 167.307 81.4857 167.431C84.6602 144.536 103.027 126.694 125.718 125.114C128.726 125.684 131 128.326 131 131.5C131 135.09 128.09 138 124.5 138H123.064C121.372 138 120 139.372 120 141.064C120 142.33 120.774 143.503 122.015 143.753C122.818 143.915 123.649 144 124.5 144C131.404 144 137 138.404 137 131.5C137 129.297 136.43 127.228 135.43 125.43C135.03 124.711 134.561 124.036 134.032 123.413C131.739 120.713 128.319 119 124.5 119ZM125.465 204H132.662C134.404 204 136.091 203.385 137.425 202.264L141.634 198.726C142.643 197.878 142.722 196.353 141.806 195.406C141.025 194.597 139.77 194.482 138.854 195.133L134.511 198.222C133.077 199.242 131.362 199.789 129.602 199.789H129.101C127.208 199.789 125.356 199.243 123.767 198.215L119.348 195.358C118.574 194.858 117.571 194.889 116.829 195.437C115.656 196.304 115.627 198.049 116.771 198.955L121.332 202.563C122.509 203.494 123.965 204 125.465 204ZM142.696 173.314C145.549 174.47 149.167 174.452 151.676 173.883C152.042 173.8 152.41 173.708 152.778 173.616L152.778 173.616C154.007 173.309 155.246 173 156.5 173C158 173 158 174 158 176C158 176.41 157.759 176.829 157.37 177.236C154.794 179.933 150.592 180 146.862 180H143C140.58 180 138.981 178.257 138.269 177.03C138.072 176.69 138 176.297 138 175.904C138 174.3 139.3 173 140.904 173H141.236C141.738 173 142.23 173.125 142.696 173.314ZM105.324 173.883C107.833 174.452 111.451 174.47 114.304 173.314C114.77 173.125 115.262 173 115.764 173H116.096C117.7 173 119 174.3 119 175.904C119 176.297 118.928 176.69 118.731 177.03C118.019 178.257 116.42 180 114 180H110.138C106.408 180 102.206 179.933 99.6299 177.236C99.2408 176.829 99 176.41 99 176C99 174 99 173 100.5 173C101.754 173 102.993 173.309 104.222 173.616L104.222 173.616L104.222 173.616L104.224 173.617C104.591 173.708 104.958 173.8 105.324 173.883Z" fill="#cad5e2"/>
</svg>
